<?xml version="1.0" encoding="UTF-8" standalone="no"?>
<!DOCTYPE svg PUBLIC "-//W3C//DTD SVG 1.1//EN"
 "http://www.w3.org/Graphics/SVG/1.1/DTD/svg11.dtd">
<!-- Generated by graphviz version 2.40.1 (20161225.0304)
 -->
<!-- Title: dependencies Pages: 1 -->
<svg width="944pt" height="211pt"
 viewBox="0.00 0.00 944.00 211.00" xmlns="http://www.w3.org/2000/svg" xmlns:xlink="http://www.w3.org/1999/xlink">
<g id="graph0" class="graph" transform="scale(1 1) rotate(0) translate(4 207)">
<title>dependencies</title>
<polygon fill="#ffffff" stroke="transparent" points="-4,4 -4,-207 940,-207 940,4 -4,4"/>
<text text-anchor="start" x="447.0091" y="-42.4" font-family="sans-serif" font-weight="bold" font-size="14.00" fill="#000000">Legend</text>
<polygon fill="#ffffb3" stroke="transparent" points="234,-10 234,-30 254,-30 254,-10 234,-10"/>
<text text-anchor="start" x="257.629" y="-15.4" font-family="sans-serif" font-size="14.00" fill="#000000"> &#160;Declarations</text>
<polygon fill="#8dd3c7" stroke="transparent" points="347,-10 347,-30 367,-30 367,-10 347,-10"/>
<text text-anchor="start" x="370.7251" y="-15.4" font-family="sans-serif" font-size="14.00" fill="#000000"> &#160;Module</text>
<polygon fill="#80b1d3" stroke="transparent" points="433,-10 433,-30 453,-30 453,-10 433,-10"/>
<text text-anchor="start" x="456.7812" y="-15.4" font-family="sans-serif" font-size="14.00" fill="#000000"> &#160;Bootstrap</text>
<polygon fill="#fdb462" stroke="transparent" points="530,-10 530,-30 550,-30 550,-10 530,-10"/>
<text text-anchor="start" x="553.6732" y="-15.4" font-family="sans-serif" font-size="14.00" fill="#000000"> &#160;Providers</text>
<polygon fill="#fb8072" stroke="transparent" points="626,-10 626,-30 646,-30 646,-10 626,-10"/>
<text text-anchor="start" x="649.7258" y="-15.4" font-family="sans-serif" font-size="14.00" fill="#000000"> &#160;Exports</text>
<g id="clust1" class="cluster">
<title>cluster_DocsModule</title>
<polygon fill="none" stroke="#000000" stroke-dasharray="1,5" points="8,-70 8,-195 928,-195 928,-70 8,-70"/>
</g>
<g id="clust2" class="cluster">
<title>cluster_DocsModule_declarations</title>
<polygon fill="none" stroke="#000000" points="174,-78 174,-130 920,-130 920,-78 174,-78"/>
</g>
<g id="clust7" class="cluster">
<title>cluster_DocsModule_imports</title>
<polygon fill="none" stroke="#000000" points="16,-78 16,-130 166,-130 166,-78 16,-78"/>
</g>
<!-- MainRootComponent -->
<g id="node1" class="node">
<title>MainRootComponent</title>
<polygon fill="#ffffb3" stroke="#000000" points="912.1094,-122 773.8906,-122 773.8906,-86 912.1094,-86 912.1094,-122"/>
<text text-anchor="middle" x="843" y="-99.8" font-family="Times,serif" font-size="14.00" fill="#000000">MainRootComponent</text>
</g>
<!-- DocsModule -->
<g id="node5" class="node">
<title>DocsModule</title>
<polygon fill="#8dd3c7" stroke="#000000" points="522.3162,-187 519.3162,-191 498.3162,-191 495.3162,-187 433.6838,-187 433.6838,-151 522.3162,-151 522.3162,-187"/>
<text text-anchor="middle" x="478" y="-164.8" font-family="Times,serif" font-size="14.00" fill="#000000">DocsModule</text>
</g>
<!-- MainRootComponent&#45;&gt;DocsModule -->
<g id="edge1" class="edge">
<title>MainRootComponent&#45;&gt;DocsModule</title>
<path fill="none" stroke="#000000" d="M843,-122.2843C843,-143.3211 843,-175 843,-175 843,-175 532.3913,-175 532.3913,-175"/>
<polygon fill="#000000" stroke="#000000" points="532.3913,-171.5001 522.3913,-175 532.3912,-178.5001 532.3913,-171.5001"/>
</g>
<!-- MainScrollToTopComponent -->
<g id="node2" class="node">
<title>MainScrollToTopComponent</title>
<polygon fill="#ffffb3" stroke="#000000" points="756.4269,-122 573.5731,-122 573.5731,-86 756.4269,-86 756.4269,-122"/>
<text text-anchor="middle" x="665" y="-99.8" font-family="Times,serif" font-size="14.00" fill="#000000">MainScrollToTopComponent</text>
</g>
<!-- MainScrollToTopComponent&#45;&gt;DocsModule -->
<g id="edge2" class="edge">
<title>MainScrollToTopComponent&#45;&gt;DocsModule</title>
<path fill="none" stroke="#000000" d="M665,-122.0225C665,-139.3734 665,-163 665,-163 665,-163 532.3164,-163 532.3164,-163"/>
<polygon fill="#000000" stroke="#000000" points="532.3164,-159.5001 522.3164,-163 532.3164,-166.5001 532.3164,-159.5001"/>
</g>
<!-- MainSidenavComponent -->
<g id="node3" class="node">
<title>MainSidenavComponent</title>
<polygon fill="#ffffb3" stroke="#000000" points="555.9846,-122 400.0154,-122 400.0154,-86 555.9846,-86 555.9846,-122"/>
<text text-anchor="middle" x="478" y="-99.8" font-family="Times,serif" font-size="14.00" fill="#000000">MainSidenavComponent</text>
</g>
<!-- MainSidenavComponent&#45;&gt;DocsModule -->
<g id="edge3" class="edge">
<title>MainSidenavComponent&#45;&gt;DocsModule</title>
<path fill="none" stroke="#000000" d="M478,-122.1061C478,-122.1061 478,-140.991 478,-140.991"/>
<polygon fill="#000000" stroke="#000000" points="474.5001,-140.9909 478,-150.991 481.5001,-140.991 474.5001,-140.9909"/>
</g>
<!-- MainSidenavContentComponent -->
<g id="node4" class="node">
<title>MainSidenavContentComponent</title>
<polygon fill="#ffffb3" stroke="#000000" points="382.3173,-122 181.6827,-122 181.6827,-86 382.3173,-86 382.3173,-122"/>
<text text-anchor="middle" x="282" y="-99.8" font-family="Times,serif" font-size="14.00" fill="#000000">MainSidenavContentComponent</text>
</g>
<!-- MainSidenavContentComponent&#45;&gt;DocsModule -->
<g id="edge4" class="edge">
<title>MainSidenavContentComponent&#45;&gt;DocsModule</title>
<path fill="none" stroke="#000000" d="M282,-122.0225C282,-139.3734 282,-163 282,-163 282,-163 423.5246,-163 423.5246,-163"/>
<polygon fill="#000000" stroke="#000000" points="423.5246,-166.5001 433.5246,-163 423.5245,-159.5001 423.5246,-166.5001"/>
</g>
<!-- DocsRoutingModule -->
<g id="node6" class="node">
<title>DocsRoutingModule</title>
<polygon fill="#8dd3c7" stroke="#000000" points="157.9341,-122 154.9341,-126 133.9341,-126 130.9341,-122 24.0659,-122 24.0659,-86 157.9341,-86 157.9341,-122"/>
<text text-anchor="middle" x="91" y="-99.8" font-family="Times,serif" font-size="14.00" fill="#000000">DocsRoutingModule</text>
</g>
<!-- DocsRoutingModule&#45;&gt;DocsModule -->
<g id="edge5" class="edge">
<title>DocsRoutingModule&#45;&gt;DocsModule</title>
<path fill="none" stroke="#000000" d="M91,-122.2843C91,-143.3211 91,-175 91,-175 91,-175 423.6062,-175 423.6062,-175"/>
<polygon fill="#000000" stroke="#000000" points="423.6062,-178.5001 433.6062,-175 423.6061,-171.5001 423.6062,-178.5001"/>
</g>
</g>
</svg>
