<?xml version="1.0" encoding="UTF-8" standalone="no"?>
<!DOCTYPE svg PUBLIC "-//W3C//DTD SVG 1.1//EN"
 "http://www.w3.org/Graphics/SVG/1.1/DTD/svg11.dtd">
<!-- Generated by graphviz version 2.40.1 (20161225.0304)
 -->
<!-- Title: dependencies Pages: 1 -->
<svg width="1084pt" height="211pt"
 viewBox="0.00 0.00 1084.00 211.00" xmlns="http://www.w3.org/2000/svg" xmlns:xlink="http://www.w3.org/1999/xlink">
<g id="graph0" class="graph" transform="scale(1 1) rotate(0) translate(4 207)">
<title>dependencies</title>
<polygon fill="#ffffff" stroke="transparent" points="-4,4 -4,-207 1080,-207 1080,4 -4,4"/>
<text text-anchor="start" x="517.0091" y="-42.4" font-family="sans-serif" font-weight="bold" font-size="14.00" fill="#000000">Legend</text>
<polygon fill="#ffffb3" stroke="transparent" points="304,-10 304,-30 324,-30 324,-10 304,-10"/>
<text text-anchor="start" x="327.629" y="-15.4" font-family="sans-serif" font-size="14.00" fill="#000000"> &#160;Declarations</text>
<polygon fill="#8dd3c7" stroke="transparent" points="417,-10 417,-30 437,-30 437,-10 417,-10"/>
<text text-anchor="start" x="440.7251" y="-15.4" font-family="sans-serif" font-size="14.00" fill="#000000"> &#160;Module</text>
<polygon fill="#80b1d3" stroke="transparent" points="503,-10 503,-30 523,-30 523,-10 503,-10"/>
<text text-anchor="start" x="526.7812" y="-15.4" font-family="sans-serif" font-size="14.00" fill="#000000"> &#160;Bootstrap</text>
<polygon fill="#fdb462" stroke="transparent" points="600,-10 600,-30 620,-30 620,-10 600,-10"/>
<text text-anchor="start" x="623.6732" y="-15.4" font-family="sans-serif" font-size="14.00" fill="#000000"> &#160;Providers</text>
<polygon fill="#fb8072" stroke="transparent" points="696,-10 696,-30 716,-30 716,-10 696,-10"/>
<text text-anchor="start" x="719.7258" y="-15.4" font-family="sans-serif" font-size="14.00" fill="#000000"> &#160;Exports</text>
<g id="clust1" class="cluster">
<title>cluster_SpecModule</title>
<polygon fill="none" stroke="#000000" stroke-dasharray="1,5" points="8,-70 8,-195 1068,-195 1068,-70 8,-70"/>
</g>
<g id="clust2" class="cluster">
<title>cluster_SpecModule_declarations</title>
<polygon fill="none" stroke="#000000" points="314,-78 314,-130 1060,-130 1060,-78 314,-78"/>
</g>
<g id="clust7" class="cluster">
<title>cluster_SpecModule_imports</title>
<polygon fill="none" stroke="#000000" points="158,-78 158,-130 306,-130 306,-78 158,-78"/>
</g>
<g id="clust10" class="cluster">
<title>cluster_SpecModule_providers</title>
<polygon fill="none" stroke="#000000" points="16,-78 16,-130 150,-130 150,-78 16,-78"/>
</g>
<!-- MainRootComponent -->
<g id="node1" class="node">
<title>MainRootComponent</title>
<polygon fill="#ffffb3" stroke="#000000" points="1052.1094,-122 913.8906,-122 913.8906,-86 1052.1094,-86 1052.1094,-122"/>
<text text-anchor="middle" x="983" y="-99.8" font-family="Times,serif" font-size="14.00" fill="#000000">MainRootComponent</text>
</g>
<!-- SpecModule -->
<g id="node5" class="node">
<title>SpecModule</title>
<polygon fill="#8dd3c7" stroke="#000000" points="563.2619,-187 560.2619,-191 539.2619,-191 536.2619,-187 476.7381,-187 476.7381,-151 563.2619,-151 563.2619,-187"/>
<text text-anchor="middle" x="520" y="-164.8" font-family="Times,serif" font-size="14.00" fill="#000000">SpecModule</text>
</g>
<!-- MainRootComponent&#45;&gt;SpecModule -->
<g id="edge1" class="edge">
<title>MainRootComponent&#45;&gt;SpecModule</title>
<path fill="none" stroke="#000000" d="M983,-122.2843C983,-143.3211 983,-175 983,-175 983,-175 573.5579,-175 573.5579,-175"/>
<polygon fill="#000000" stroke="#000000" points="573.558,-171.5001 563.5579,-175 573.5579,-178.5001 573.558,-171.5001"/>
</g>
<!-- MainScrollToTopComponent -->
<g id="node2" class="node">
<title>MainScrollToTopComponent</title>
<polygon fill="#ffffb3" stroke="#000000" points="896.4269,-122 713.5731,-122 713.5731,-86 896.4269,-86 896.4269,-122"/>
<text text-anchor="middle" x="805" y="-99.8" font-family="Times,serif" font-size="14.00" fill="#000000">MainScrollToTopComponent</text>
</g>
<!-- MainScrollToTopComponent&#45;&gt;SpecModule -->
<g id="edge2" class="edge">
<title>MainScrollToTopComponent&#45;&gt;SpecModule</title>
<path fill="none" stroke="#000000" d="M805,-122.0225C805,-139.3734 805,-163 805,-163 805,-163 573.2854,-163 573.2854,-163"/>
<polygon fill="#000000" stroke="#000000" points="573.2854,-159.5001 563.2854,-163 573.2853,-166.5001 573.2854,-159.5001"/>
</g>
<!-- MainSidenavComponent -->
<g id="node3" class="node">
<title>MainSidenavComponent</title>
<polygon fill="#ffffb3" stroke="#000000" points="695.9846,-122 540.0154,-122 540.0154,-86 695.9846,-86 695.9846,-122"/>
<text text-anchor="middle" x="618" y="-99.8" font-family="Times,serif" font-size="14.00" fill="#000000">MainSidenavComponent</text>
</g>
<!-- MainSidenavComponent&#45;&gt;SpecModule -->
<g id="edge3" class="edge">
<title>MainSidenavComponent&#45;&gt;SpecModule</title>
<path fill="none" stroke="#000000" d="M551.6943,-122.1061C551.6943,-122.1061 551.6943,-140.991 551.6943,-140.991"/>
<polygon fill="#000000" stroke="#000000" points="548.1943,-140.9909 551.6943,-150.991 555.1943,-140.991 548.1943,-140.9909"/>
</g>
<!-- MainSidenavContentComponent -->
<g id="node4" class="node">
<title>MainSidenavContentComponent</title>
<polygon fill="#ffffb3" stroke="#000000" points="522.3173,-122 321.6827,-122 321.6827,-86 522.3173,-86 522.3173,-122"/>
<text text-anchor="middle" x="422" y="-99.8" font-family="Times,serif" font-size="14.00" fill="#000000">MainSidenavContentComponent</text>
</g>
<!-- MainSidenavContentComponent&#45;&gt;SpecModule -->
<g id="edge4" class="edge">
<title>MainSidenavContentComponent&#45;&gt;SpecModule</title>
<path fill="none" stroke="#000000" d="M499.3889,-122.1061C499.3889,-122.1061 499.3889,-140.991 499.3889,-140.991"/>
<polygon fill="#000000" stroke="#000000" points="495.8889,-140.9909 499.3889,-150.991 502.8889,-140.991 495.8889,-140.9909"/>
</g>
<!-- SpecRoutingModule -->
<g id="node6" class="node">
<title>SpecRoutingModule</title>
<polygon fill="#8dd3c7" stroke="#000000" points="297.8795,-122 294.8795,-126 273.8795,-126 270.8795,-122 166.1205,-122 166.1205,-86 297.8795,-86 297.8795,-122"/>
<text text-anchor="middle" x="232" y="-99.8" font-family="Times,serif" font-size="14.00" fill="#000000">SpecRoutingModule</text>
</g>
<!-- SpecRoutingModule&#45;&gt;SpecModule -->
<g id="edge5" class="edge">
<title>SpecRoutingModule&#45;&gt;SpecModule</title>
<path fill="none" stroke="#000000" d="M232,-122.0225C232,-139.3734 232,-163 232,-163 232,-163 466.5717,-163 466.5717,-163"/>
<polygon fill="#000000" stroke="#000000" points="466.5717,-166.5001 476.5717,-163 466.5716,-159.5001 466.5717,-166.5001"/>
</g>
<!-- SpecService -->
<g id="node7" class="node">
<title>SpecService</title>
<ellipse fill="#fdb462" stroke="#000000" cx="83" cy="-104" rx="58.5251" ry="18"/>
<text text-anchor="middle" x="83" y="-99.8" font-family="Times,serif" font-size="14.00" fill="#000000">SpecService</text>
</g>
<!-- SpecService&#45;&gt;SpecModule -->
<g id="edge6" class="edge">
<title>SpecService&#45;&gt;SpecModule</title>
<path fill="none" stroke="#000000" d="M83,-122.2843C83,-143.3211 83,-175 83,-175 83,-175 466.5011,-175 466.5011,-175"/>
<polygon fill="#000000" stroke="#000000" points="466.5012,-178.5001 476.5011,-175 466.5011,-171.5001 466.5012,-178.5001"/>
</g>
</g>
</svg>
