<?xml version="1.0" encoding="UTF-8" standalone="no"?>
<!DOCTYPE svg PUBLIC "-//W3C//DTD SVG 1.1//EN"
 "http://www.w3.org/Graphics/SVG/1.1/DTD/svg11.dtd">
<!-- Generated by graphviz version 2.40.1 (20161225.0304)
 -->
<!-- Title: dependencies Pages: 1 -->
<svg width="642pt" height="284pt"
 viewBox="0.00 0.00 642.00 284.00" xmlns="http://www.w3.org/2000/svg" xmlns:xlink="http://www.w3.org/1999/xlink">
<g id="graph0" class="graph" transform="scale(1 1) rotate(0) translate(4 280)">
<title>dependencies</title>
<polygon fill="#ffffff" stroke="transparent" points="-4,4 -4,-280 638,-280 638,4 -4,4"/>
<text text-anchor="start" x="296.0091" y="-42.4" font-family="sans-serif" font-weight="bold" font-size="14.00" fill="#000000">Legend</text>
<polygon fill="#ffffb3" stroke="transparent" points="83,-10 83,-30 103,-30 103,-10 83,-10"/>
<text text-anchor="start" x="106.629" y="-15.4" font-family="sans-serif" font-size="14.00" fill="#000000"> &#160;Declarations</text>
<polygon fill="#8dd3c7" stroke="transparent" points="196,-10 196,-30 216,-30 216,-10 196,-10"/>
<text text-anchor="start" x="219.7251" y="-15.4" font-family="sans-serif" font-size="14.00" fill="#000000"> &#160;Module</text>
<polygon fill="#80b1d3" stroke="transparent" points="282,-10 282,-30 302,-30 302,-10 282,-10"/>
<text text-anchor="start" x="305.7812" y="-15.4" font-family="sans-serif" font-size="14.00" fill="#000000"> &#160;Bootstrap</text>
<polygon fill="#fdb462" stroke="transparent" points="379,-10 379,-30 399,-30 399,-10 379,-10"/>
<text text-anchor="start" x="402.6732" y="-15.4" font-family="sans-serif" font-size="14.00" fill="#000000"> &#160;Providers</text>
<polygon fill="#fb8072" stroke="transparent" points="475,-10 475,-30 495,-30 495,-10 475,-10"/>
<text text-anchor="start" x="498.7258" y="-15.4" font-family="sans-serif" font-size="14.00" fill="#000000"> &#160;Exports</text>
<g id="clust1" class="cluster">
<title>cluster_SharedModule</title>
<polygon fill="none" stroke="#000000" stroke-dasharray="1,5" points="8,-70 8,-268 626,-268 626,-70 8,-70"/>
</g>
<g id="clust2" class="cluster">
<title>cluster_SharedModule_declarations</title>
<polygon fill="none" stroke="#000000" points="22,-78 22,-130 612,-130 612,-78 22,-78"/>
</g>
<g id="clust7" class="cluster">
<title>cluster_SharedModule_exports</title>
<polygon fill="none" stroke="#000000" points="16,-208 16,-260 618,-260 618,-208 16,-208"/>
</g>
<!-- MainScrollToTopComponent -->
<g id="node1" class="node">
<title>MainScrollToTopComponent</title>
<polygon fill="#ffffb3" stroke="#000000" points="604.4269,-122 421.5731,-122 421.5731,-86 604.4269,-86 604.4269,-122"/>
<text text-anchor="middle" x="513" y="-99.8" font-family="Times,serif" font-size="14.00" fill="#000000">MainScrollToTopComponent</text>
</g>
<!-- SharedModule -->
<g id="node4" class="node">
<title>SharedModule</title>
<polygon fill="#8dd3c7" stroke="#000000" points="375.4231,-187 372.4231,-191 351.4231,-191 348.4231,-187 276.5769,-187 276.5769,-151 375.4231,-151 375.4231,-187"/>
<text text-anchor="middle" x="326" y="-164.8" font-family="Times,serif" font-size="14.00" fill="#000000">SharedModule</text>
</g>
<!-- MainScrollToTopComponent&#45;&gt;SharedModule -->
<g id="edge1" class="edge">
<title>MainScrollToTopComponent&#45;&gt;SharedModule</title>
<path fill="none" stroke="#000000" d="M544.1544,-122.0225C544.1544,-139.3734 544.1544,-163 544.1544,-163 544.1544,-163 385.2301,-163 385.2301,-163"/>
<polygon fill="#000000" stroke="#000000" points="385.2302,-159.5001 375.2301,-163 385.2301,-166.5001 385.2302,-159.5001"/>
</g>
<!-- MainSidenavComponent -->
<g id="node2" class="node">
<title>MainSidenavComponent</title>
<polygon fill="#ffffb3" stroke="#000000" points="403.9846,-122 248.0154,-122 248.0154,-86 403.9846,-86 403.9846,-122"/>
<text text-anchor="middle" x="326" y="-99.8" font-family="Times,serif" font-size="14.00" fill="#000000">MainSidenavComponent</text>
</g>
<!-- MainSidenavComponent&#45;&gt;SharedModule -->
<g id="edge2" class="edge">
<title>MainSidenavComponent&#45;&gt;SharedModule</title>
<path fill="none" stroke="#000000" d="M326,-122.1061C326,-122.1061 326,-140.991 326,-140.991"/>
<polygon fill="#000000" stroke="#000000" points="322.5001,-140.9909 326,-150.991 329.5001,-140.991 322.5001,-140.9909"/>
</g>
<!-- MainSidenavContentComponent -->
<g id="node3" class="node">
<title>MainSidenavContentComponent</title>
<polygon fill="#ffffb3" stroke="#000000" points="230.3173,-122 29.6827,-122 29.6827,-86 230.3173,-86 230.3173,-122"/>
<text text-anchor="middle" x="130" y="-99.8" font-family="Times,serif" font-size="14.00" fill="#000000">MainSidenavContentComponent</text>
</g>
<!-- MainSidenavContentComponent&#45;&gt;SharedModule -->
<g id="edge3" class="edge">
<title>MainSidenavContentComponent&#45;&gt;SharedModule</title>
<path fill="none" stroke="#000000" d="M161.8862,-122.0225C161.8862,-139.3734 161.8862,-163 161.8862,-163 161.8862,-163 266.7604,-163 266.7604,-163"/>
<polygon fill="#000000" stroke="#000000" points="266.7605,-166.5001 276.7604,-163 266.7604,-159.5001 266.7605,-166.5001"/>
</g>
<!-- MainScrollToTopComponent  -->
<g id="node5" class="node">
<title>MainScrollToTopComponent </title>
<polygon fill="#fb8072" stroke="#000000" points="609.9264,-252 424.0736,-252 424.0736,-216 609.9264,-216 609.9264,-252"/>
<text text-anchor="middle" x="517" y="-229.8" font-family="Times,serif" font-size="14.00" fill="#000000">MainScrollToTopComponent </text>
</g>
<!-- SharedModule&#45;&gt;MainScrollToTopComponent  -->
<g id="edge4" class="edge">
<title>SharedModule&#45;&gt;MainScrollToTopComponent </title>
<path fill="none" stroke="#000000" stroke-dasharray="5,2" d="M375.5887,-175C421.9529,-175 484.0956,-175 484.0956,-175 484.0956,-175 484.0956,-205.9775 484.0956,-205.9775"/>
<polygon fill="#000000" stroke="#000000" points="480.5957,-205.9774 484.0956,-215.9775 487.5957,-205.9775 480.5957,-205.9774"/>
</g>
<!-- MainSidenavComponent  -->
<g id="node6" class="node">
<title>MainSidenavComponent </title>
<polygon fill="#fb8072" stroke="#000000" points="405.9853,-252 246.0147,-252 246.0147,-216 405.9853,-216 405.9853,-252"/>
<text text-anchor="middle" x="326" y="-229.8" font-family="Times,serif" font-size="14.00" fill="#000000">MainSidenavComponent </text>
</g>
<!-- SharedModule&#45;&gt;MainSidenavComponent  -->
<g id="edge5" class="edge">
<title>SharedModule&#45;&gt;MainSidenavComponent </title>
<path fill="none" stroke="#000000" stroke-dasharray="5,2" d="M326,-187.1061C326,-187.1061 326,-205.991 326,-205.991"/>
<polygon fill="#000000" stroke="#000000" points="322.5001,-205.9909 326,-215.991 329.5001,-205.991 322.5001,-205.9909"/>
</g>
<!-- MainSidenavContentComponent  -->
<g id="node7" class="node">
<title>MainSidenavContentComponent </title>
<polygon fill="#fb8072" stroke="#000000" points="227.8171,-252 24.1829,-252 24.1829,-216 227.8171,-216 227.8171,-252"/>
<text text-anchor="middle" x="126" y="-229.8" font-family="Times,serif" font-size="14.00" fill="#000000">MainSidenavContentComponent </text>
</g>
<!-- SharedModule&#45;&gt;MainSidenavContentComponent  -->
<g id="edge6" class="edge">
<title>SharedModule&#45;&gt;MainSidenavContentComponent </title>
<path fill="none" stroke="#000000" stroke-dasharray="5,2" d="M276.63,-175C209.0084,-175 95.8638,-175 95.8638,-175 95.8638,-175 95.8638,-205.9775 95.8638,-205.9775"/>
<polygon fill="#000000" stroke="#000000" points="92.3639,-205.9774 95.8638,-215.9775 99.3639,-205.9775 92.3639,-205.9774"/>
</g>
</g>
</svg>
