<?xml version="1.0" encoding="UTF-8" standalone="no"?>
<!DOCTYPE svg PUBLIC "-//W3C//DTD SVG 1.1//EN"
 "http://www.w3.org/Graphics/SVG/1.1/DTD/svg11.dtd">
<!-- Generated by graphviz version 2.40.1 (20161225.0304)
 -->
<!-- Title: dependencies Pages: 1 -->
<svg width="2588pt" height="358pt"
 viewBox="0.00 0.00 2588.00 358.00" xmlns="http://www.w3.org/2000/svg" xmlns:xlink="http://www.w3.org/1999/xlink">
<g id="graph0" class="graph" transform="scale(1 1) rotate(0) translate(4 354)">
<title>dependencies</title>
<polygon fill="#ffffff" stroke="transparent" points="-4,4 -4,-354 2584,-354 2584,4 -4,4"/>
<text text-anchor="start" x="1269.0091" y="-42.4" font-family="sans-serif" font-weight="bold" font-size="14.00" fill="#000000">Legend</text>
<polygon fill="#ffffb3" stroke="transparent" points="1056,-10 1056,-30 1076,-30 1076,-10 1056,-10"/>
<text text-anchor="start" x="1079.629" y="-15.4" font-family="sans-serif" font-size="14.00" fill="#000000"> &#160;Declarations</text>
<polygon fill="#8dd3c7" stroke="transparent" points="1169,-10 1169,-30 1189,-30 1189,-10 1169,-10"/>
<text text-anchor="start" x="1192.7251" y="-15.4" font-family="sans-serif" font-size="14.00" fill="#000000"> &#160;Module</text>
<polygon fill="#80b1d3" stroke="transparent" points="1255,-10 1255,-30 1275,-30 1275,-10 1255,-10"/>
<text text-anchor="start" x="1278.7812" y="-15.4" font-family="sans-serif" font-size="14.00" fill="#000000"> &#160;Bootstrap</text>
<polygon fill="#fdb462" stroke="transparent" points="1352,-10 1352,-30 1372,-30 1372,-10 1352,-10"/>
<text text-anchor="start" x="1375.6732" y="-15.4" font-family="sans-serif" font-size="14.00" fill="#000000"> &#160;Providers</text>
<polygon fill="#fb8072" stroke="transparent" points="1448,-10 1448,-30 1468,-30 1468,-10 1448,-10"/>
<text text-anchor="start" x="1471.7258" y="-15.4" font-family="sans-serif" font-size="14.00" fill="#000000"> &#160;Exports</text>
<g id="clust1" class="cluster">
<title>cluster_AppModule</title>
<polygon fill="none" stroke="#000000" stroke-dasharray="1,5" points="936,-138 936,-342 1292,-342 1292,-138 936,-138"/>
</g>
<g id="clust2" class="cluster">
<title>cluster_AppModule_declarations</title>
<polygon fill="none" stroke="#000000" points="944,-146 944,-198 1066,-198 1066,-146 944,-146"/>
</g>
<g id="clust4" class="cluster">
<title>cluster_AppModule_imports</title>
<polygon fill="none" stroke="#000000" points="1074,-146 1074,-198 1284,-198 1284,-146 1074,-146"/>
</g>
<g id="clust6" class="cluster">
<title>cluster_AppModule_bootstrap</title>
<polygon fill="none" stroke="#000000" points="1063,-282 1063,-334 1187,-334 1187,-282 1063,-282"/>
</g>
<g id="clust14" class="cluster">
<title>cluster_DocsModule</title>
<polygon fill="none" stroke="#000000" stroke-dasharray="1,5" points="8,-70 8,-198 928,-198 928,-70 8,-70"/>
</g>
<g id="clust15" class="cluster">
<title>cluster_DocsModule_declarations</title>
<polygon fill="none" stroke="#000000" points="174,-78 174,-130 920,-130 920,-78 174,-78"/>
</g>
<g id="clust20" class="cluster">
<title>cluster_DocsModule_imports</title>
<polygon fill="none" stroke="#000000" points="16,-78 16,-130 166,-130 166,-78 16,-78"/>
</g>
<g id="clust30" class="cluster">
<title>cluster_MainModule</title>
<polygon fill="none" stroke="#000000" stroke-dasharray="1,5" points="1300,-206 1300,-274 1632,-274 1632,-206 1300,-206"/>
</g>
<g id="clust36" class="cluster">
<title>cluster_MainModule_imports</title>
<polygon fill="none" stroke="#000000" points="1474,-214 1474,-266 1624,-266 1624,-214 1474,-214"/>
</g>
<g id="clust37" class="cluster">
<title>cluster_MainModule_exports</title>
<polygon fill="none" stroke="#000000" points="1308,-214 1308,-266 1466,-266 1466,-214 1308,-214"/>
</g>
<g id="clust46" class="cluster">
<title>cluster_SharedModule</title>
<polygon fill="none" stroke="#000000" stroke-dasharray="1,5" points="1640,-146 1640,-274 2258,-274 2258,-146 1640,-146"/>
</g>
<g id="clust52" class="cluster">
<title>cluster_SharedModule_exports</title>
<polygon fill="none" stroke="#000000" points="1648,-214 1648,-266 2250,-266 2250,-214 1648,-214"/>
</g>
<g id="clust55" class="cluster">
<title>cluster_SpecModule</title>
<polygon fill="none" stroke="#000000" stroke-dasharray="1,5" points="2266,-70 2266,-198 2572,-198 2572,-70 2266,-70"/>
</g>
<g id="clust61" class="cluster">
<title>cluster_SpecModule_imports</title>
<polygon fill="none" stroke="#000000" points="2416,-78 2416,-130 2564,-130 2564,-78 2416,-78"/>
</g>
<g id="clust64" class="cluster">
<title>cluster_SpecModule_providers</title>
<polygon fill="none" stroke="#000000" points="2274,-78 2274,-130 2408,-130 2408,-78 2274,-78"/>
</g>
<!-- AppComponent -->
<g id="node1" class="node">
<title>AppComponent</title>
<polygon fill="#ffffb3" stroke="#000000" points="1057.9399,-190 952.0601,-190 952.0601,-154 1057.9399,-154 1057.9399,-190"/>
<text text-anchor="middle" x="1005" y="-167.8" font-family="Times,serif" font-size="14.00" fill="#000000">AppComponent</text>
</g>
<!-- AppModule -->
<g id="node2" class="node">
<title>AppModule</title>
<polygon fill="#8dd3c7" stroke="#000000" points="1166.6571,-258 1163.6571,-262 1142.6571,-262 1139.6571,-258 1083.3429,-258 1083.3429,-222 1166.6571,-222 1166.6571,-258"/>
<text text-anchor="middle" x="1125" y="-235.8" font-family="Times,serif" font-size="14.00" fill="#000000">AppModule</text>
</g>
<!-- AppComponent&#45;&gt;AppModule -->
<g id="edge1" class="edge">
<title>AppComponent&#45;&gt;AppModule</title>
<path fill="none" stroke="#000000" d="M1005,-190.2228C1005,-210.3652 1005,-240 1005,-240 1005,-240 1073.0298,-240 1073.0298,-240"/>
<polygon fill="#000000" stroke="#000000" points="1073.0299,-243.5001 1083.0298,-240 1073.0298,-236.5001 1073.0299,-243.5001"/>
</g>
<!-- AppComponent  -->
<g id="node5" class="node">
<title>AppComponent </title>
<polygon fill="#80b1d3" stroke="#000000" points="1179.439,-326 1070.561,-326 1070.561,-290 1179.439,-290 1179.439,-326"/>
<text text-anchor="middle" x="1125" y="-303.8" font-family="Times,serif" font-size="14.00" fill="#000000">AppComponent </text>
</g>
<!-- AppModule&#45;&gt;AppComponent  -->
<g id="edge4" class="edge">
<title>AppModule&#45;&gt;AppComponent </title>
<path fill="none" stroke="#000000" stroke-dasharray="1,5" d="M1125,-258.2228C1125,-258.2228 1125,-279.7269 1125,-279.7269"/>
<polygon fill="#000000" stroke="#000000" points="1121.5001,-279.7269 1125,-289.7269 1128.5001,-279.727 1121.5001,-279.7269"/>
</g>
<!-- CoreModule -->
<g id="node3" class="node">
<title>CoreModule</title>
<polygon fill="#8dd3c7" stroke="#000000" points="1168.2619,-190 1165.2619,-194 1144.2619,-194 1141.2619,-190 1081.7381,-190 1081.7381,-154 1168.2619,-154 1168.2619,-190"/>
<text text-anchor="middle" x="1125" y="-167.8" font-family="Times,serif" font-size="14.00" fill="#000000">CoreModule</text>
</g>
<!-- CoreModule&#45;&gt;AppModule -->
<g id="edge2" class="edge">
<title>CoreModule&#45;&gt;AppModule</title>
<path fill="none" stroke="#000000" d="M1125,-190.2228C1125,-190.2228 1125,-211.7269 1125,-211.7269"/>
<polygon fill="#000000" stroke="#000000" points="1121.5001,-211.7269 1125,-221.7269 1128.5001,-211.727 1121.5001,-211.7269"/>
</g>
<!-- MainModule -->
<g id="node4" class="node">
<title>MainModule</title>
<polygon fill="#8dd3c7" stroke="#000000" points="1275.5997,-190 1272.5997,-194 1251.5997,-194 1248.5997,-190 1186.4003,-190 1186.4003,-154 1275.5997,-154 1275.5997,-190"/>
<text text-anchor="middle" x="1231" y="-167.8" font-family="Times,serif" font-size="14.00" fill="#000000">MainModule</text>
</g>
<!-- MainModule&#45;&gt;AppModule -->
<g id="edge3" class="edge">
<title>MainModule&#45;&gt;AppModule</title>
<path fill="none" stroke="#000000" d="M1216.1501,-190.2921C1216.1501,-212.2057 1216.1501,-246 1216.1501,-246 1216.1501,-246 1176.8402,-246 1176.8402,-246"/>
<polygon fill="#000000" stroke="#000000" points="1176.8402,-242.5001 1166.8402,-246 1176.8401,-249.5001 1176.8402,-242.5001"/>
</g>
<!-- MainRootComponent  -->
<g id="node13" class="node">
<title>MainRootComponent </title>
<polygon fill="#fb8072" stroke="#000000" points="1457.6099,-258 1316.3901,-258 1316.3901,-222 1457.6099,-222 1457.6099,-258"/>
<text text-anchor="middle" x="1387" y="-235.8" font-family="Times,serif" font-size="14.00" fill="#000000">MainRootComponent </text>
</g>
<!-- MainModule&#45;&gt;MainRootComponent  -->
<g id="edge15" class="edge">
<title>MainModule&#45;&gt;MainRootComponent </title>
<path fill="none" stroke="#000000" stroke-dasharray="5,2" d="M1245.8499,-190.2667C1245.8499,-208.5552 1245.8499,-234 1245.8499,-234 1245.8499,-234 1306.0114,-234 1306.0114,-234"/>
<polygon fill="#000000" stroke="#000000" points="1306.0115,-237.5001 1316.0114,-234 1306.0114,-230.5001 1306.0115,-237.5001"/>
</g>
<!-- MainRootComponent -->
<g id="node6" class="node">
<title>MainRootComponent</title>
<polygon fill="#ffffb3" stroke="#000000" points="320.1094,-122 181.8906,-122 181.8906,-86 320.1094,-86 320.1094,-122"/>
<text text-anchor="middle" x="251" y="-99.8" font-family="Times,serif" font-size="14.00" fill="#000000">MainRootComponent</text>
</g>
<!-- MainRootComponent&#45;&gt;MainModule -->
<g id="edge10" class="edge">
<title>MainRootComponent&#45;&gt;MainModule</title>
<path fill="none" stroke="#000000" d="M216.4726,-122.037C216.4726,-135.2913 216.4726,-151 216.4726,-151 216.4726,-151 1204.2701,-151 1204.2701,-151 1204.2701,-151 1204.2701,-151.292 1204.2701,-151.292"/>
<polygon fill="#000000" stroke="#000000" points="1200.7705,-143.9198 1204.2701,-153.92 1207.7705,-143.9201 1200.7705,-143.9198"/>
</g>
<!-- DocsModule -->
<g id="node10" class="node">
<title>DocsModule</title>
<polygon fill="#8dd3c7" stroke="#000000" points="482.3162,-190 479.3162,-194 458.3162,-194 455.3162,-190 393.6838,-190 393.6838,-154 482.3162,-154 482.3162,-190"/>
<text text-anchor="middle" x="438" y="-167.8" font-family="Times,serif" font-size="14.00" fill="#000000">DocsModule</text>
</g>
<!-- MainRootComponent&#45;&gt;DocsModule -->
<g id="edge5" class="edge">
<title>MainRootComponent&#45;&gt;DocsModule</title>
<path fill="none" stroke="#000000" d="M285.5274,-122.2667C285.5274,-140.5552 285.5274,-166 285.5274,-166 285.5274,-166 383.4887,-166 383.4887,-166"/>
<polygon fill="#000000" stroke="#000000" points="383.4888,-169.5001 393.4887,-166 383.4887,-162.5001 383.4888,-169.5001"/>
</g>
<!-- SpecModule -->
<g id="node18" class="node">
<title>SpecModule</title>
<polygon fill="#8dd3c7" stroke="#000000" points="2360.2619,-190 2357.2619,-194 2336.2619,-194 2333.2619,-190 2273.7381,-190 2273.7381,-154 2360.2619,-154 2360.2619,-190"/>
<text text-anchor="middle" x="2317" y="-167.8" font-family="Times,serif" font-size="14.00" fill="#000000">SpecModule</text>
</g>
<!-- MainRootComponent&#45;&gt;SpecModule -->
<g id="edge22" class="edge">
<title>MainRootComponent&#45;&gt;SpecModule</title>
<path fill="none" stroke="#000000" d="M251,-122.1679C251,-124.4478 251,-126 251,-126 251,-126 2308.2855,-126 2308.2855,-126 2308.2855,-126 2308.2855,-143.8196 2308.2855,-143.8196"/>
<polygon fill="#000000" stroke="#000000" points="2304.7856,-143.8195 2308.2855,-153.8196 2311.7856,-143.8196 2304.7856,-143.8195"/>
</g>
<!-- MainScrollToTopComponent -->
<g id="node7" class="node">
<title>MainScrollToTopComponent</title>
<polygon fill="#ffffb3" stroke="#000000" points="912.4269,-122 729.5731,-122 729.5731,-86 912.4269,-86 912.4269,-122"/>
<text text-anchor="middle" x="821" y="-99.8" font-family="Times,serif" font-size="14.00" fill="#000000">MainScrollToTopComponent</text>
</g>
<!-- MainScrollToTopComponent&#45;&gt;MainModule -->
<g id="edge11" class="edge">
<title>MainScrollToTopComponent&#45;&gt;MainModule</title>
<path fill="none" stroke="#000000" d="M912.287,-113C1040.3153,-113 1257.7299,-113 1257.7299,-113 1257.7299,-113 1257.7299,-143.9775 1257.7299,-143.9775"/>
<polygon fill="#000000" stroke="#000000" points="1254.23,-143.9774 1257.7299,-153.9775 1261.23,-143.9775 1254.23,-143.9774"/>
</g>
<!-- MainScrollToTopComponent&#45;&gt;DocsModule -->
<g id="edge6" class="edge">
<title>MainScrollToTopComponent&#45;&gt;DocsModule</title>
<path fill="none" stroke="#000000" d="M821,-122.2921C821,-144.2057 821,-178 821,-178 821,-178 492.3091,-178 492.3091,-178"/>
<polygon fill="#000000" stroke="#000000" points="492.3092,-174.5001 482.3091,-178 492.3091,-181.5001 492.3092,-174.5001"/>
</g>
<!-- SharedModule -->
<g id="node14" class="node">
<title>SharedModule</title>
<polygon fill="#8dd3c7" stroke="#000000" points="1776.4231,-190 1773.4231,-194 1752.4231,-194 1749.4231,-190 1677.5769,-190 1677.5769,-154 1776.4231,-154 1776.4231,-190"/>
<text text-anchor="middle" x="1727" y="-167.8" font-family="Times,serif" font-size="14.00" fill="#000000">SharedModule</text>
</g>
<!-- MainScrollToTopComponent&#45;&gt;SharedModule -->
<g id="edge16" class="edge">
<title>MainScrollToTopComponent&#45;&gt;SharedModule</title>
<path fill="none" stroke="#000000" d="M912.3504,-104C1146.8221,-104 1751.6056,-104 1751.6056,-104 1751.6056,-104 1751.6056,-143.7772 1751.6056,-143.7772"/>
<polygon fill="#000000" stroke="#000000" points="1748.1056,-143.7772 1751.6056,-153.7772 1755.1056,-143.7773 1748.1056,-143.7772"/>
</g>
<!-- MainScrollToTopComponent&#45;&gt;SpecModule -->
<g id="edge23" class="edge">
<title>MainScrollToTopComponent&#45;&gt;SpecModule</title>
<path fill="none" stroke="#000000" d="M912.2722,-95C1231.7011,-95 2280.0832,-95 2280.0832,-95 2280.0832,-95 2280.0832,-143.7521 2280.0832,-143.7521"/>
<polygon fill="#000000" stroke="#000000" points="2276.5833,-143.752 2280.0832,-153.7521 2283.5833,-143.7521 2276.5833,-143.752"/>
</g>
<!-- MainSidenavComponent -->
<g id="node8" class="node">
<title>MainSidenavComponent</title>
<polygon fill="#ffffb3" stroke="#000000" points="711.9846,-122 556.0154,-122 556.0154,-86 711.9846,-86 711.9846,-122"/>
<text text-anchor="middle" x="634" y="-99.8" font-family="Times,serif" font-size="14.00" fill="#000000">MainSidenavComponent</text>
</g>
<!-- MainSidenavComponent&#45;&gt;MainModule -->
<g id="edge12" class="edge">
<title>MainSidenavComponent&#45;&gt;MainModule</title>
<path fill="none" stroke="#000000" d="M587.2046,-122.1274C587.2046,-132.7109 587.2046,-144 587.2046,-144 587.2046,-144 1239.91,-144 1239.91,-144 1239.91,-144 1239.91,-144.9793 1239.91,-144.9793"/>
<polygon fill="#000000" stroke="#000000" points="1236.4101,-143.793 1239.91,-153.793 1243.4101,-143.7931 1236.4101,-143.793"/>
</g>
<!-- MainSidenavComponent&#45;&gt;DocsModule -->
<g id="edge7" class="edge">
<title>MainSidenavComponent&#45;&gt;DocsModule</title>
<path fill="none" stroke="#000000" d="M680.7954,-122.2667C680.7954,-140.5552 680.7954,-166 680.7954,-166 680.7954,-166 492.2501,-166 492.2501,-166"/>
<polygon fill="#000000" stroke="#000000" points="492.2501,-162.5001 482.2501,-166 492.2501,-169.5001 492.2501,-162.5001"/>
</g>
<!-- MainSidenavComponent&#45;&gt;SharedModule -->
<g id="edge17" class="edge">
<title>MainSidenavComponent&#45;&gt;SharedModule</title>
<path fill="none" stroke="#000000" d="M618.4015,-122.0449C618.4015,-129.749 618.4015,-137 618.4015,-137 618.4015,-137 1727,-137 1727,-137 1727,-137 1727,-143.68 1727,-143.68"/>
<polygon fill="#000000" stroke="#000000" points="1723.5001,-143.6799 1727,-153.68 1730.5001,-143.68 1723.5001,-143.6799"/>
</g>
<!-- MainSidenavComponent&#45;&gt;SpecModule -->
<g id="edge24" class="edge">
<title>MainSidenavComponent&#45;&gt;SpecModule</title>
<path fill="none" stroke="#000000" d="M649.5985,-122.0579C649.5985,-126.4945 649.5985,-130 649.5985,-130 649.5985,-130 2277.9286,-130 2277.9286,-130 2277.9286,-130 2277.9286,-143.9445 2277.9286,-143.9445"/>
<polygon fill="#000000" stroke="#000000" points="2274.4287,-143.9444 2277.9286,-153.9445 2281.4287,-143.9445 2274.4287,-143.9444"/>
</g>
<!-- MainSidenavContentComponent -->
<g id="node9" class="node">
<title>MainSidenavContentComponent</title>
<polygon fill="#ffffb3" stroke="#000000" points="538.3173,-122 337.6827,-122 337.6827,-86 538.3173,-86 538.3173,-122"/>
<text text-anchor="middle" x="438" y="-99.8" font-family="Times,serif" font-size="14.00" fill="#000000">MainSidenavContentComponent</text>
</g>
<!-- MainSidenavContentComponent&#45;&gt;MainModule -->
<g id="edge13" class="edge">
<title>MainSidenavContentComponent&#45;&gt;MainModule</title>
<path fill="none" stroke="#000000" d="M496.158,-122.4854C496.158,-134.1399 496.158,-147 496.158,-147 496.158,-147 1222.09,-147 1222.09,-147 1222.09,-147 1222.09,-147.6831 1222.09,-147.6831"/>
<polygon fill="#000000" stroke="#000000" points="1218.5902,-143.8313 1222.09,-153.8314 1225.5902,-143.8314 1218.5902,-143.8313"/>
</g>
<!-- MainSidenavContentComponent&#45;&gt;DocsModule -->
<g id="edge8" class="edge">
<title>MainSidenavContentComponent&#45;&gt;DocsModule</title>
<path fill="none" stroke="#000000" d="M438,-122.2228C438,-122.2228 438,-143.7269 438,-143.7269"/>
<polygon fill="#000000" stroke="#000000" points="434.5001,-143.7269 438,-153.7269 441.5001,-143.727 434.5001,-143.7269"/>
</g>
<!-- MainSidenavContentComponent&#45;&gt;SharedModule -->
<g id="edge18" class="edge">
<title>MainSidenavContentComponent&#45;&gt;SharedModule</title>
<path fill="none" stroke="#000000" d="M510.1582,-122.4218C510.1582,-131.2791 510.1582,-140 510.1582,-140 510.1582,-140 1702.3945,-140 1702.3945,-140 1702.3945,-140 1702.3945,-143.7566 1702.3945,-143.7566"/>
<polygon fill="#000000" stroke="#000000" points="1698.8945,-143.7566 1702.3945,-153.7566 1705.8945,-143.7566 1698.8945,-143.7566"/>
</g>
<!-- MainSidenavContentComponent&#45;&gt;SpecModule -->
<g id="edge25" class="edge">
<title>MainSidenavContentComponent&#45;&gt;SpecModule</title>
<path fill="none" stroke="#000000" d="M524.1583,-122.2015C524.1583,-128.028 524.1583,-133 524.1583,-133 524.1583,-133 2275.7739,-133 2275.7739,-133 2275.7739,-133 2275.7739,-143.8701 2275.7739,-143.8701"/>
<polygon fill="#000000" stroke="#000000" points="2272.274,-143.8701 2275.7739,-153.8701 2279.274,-143.8701 2272.274,-143.8701"/>
</g>
<!-- DocsRoutingModule -->
<g id="node11" class="node">
<title>DocsRoutingModule</title>
<polygon fill="#8dd3c7" stroke="#000000" points="157.9341,-122 154.9341,-126 133.9341,-126 130.9341,-122 24.0659,-122 24.0659,-86 157.9341,-86 157.9341,-122"/>
<text text-anchor="middle" x="91" y="-99.8" font-family="Times,serif" font-size="14.00" fill="#000000">DocsRoutingModule</text>
</g>
<!-- DocsRoutingModule&#45;&gt;DocsModule -->
<g id="edge9" class="edge">
<title>DocsRoutingModule&#45;&gt;DocsModule</title>
<path fill="none" stroke="#000000" d="M91,-122.2921C91,-144.2057 91,-178 91,-178 91,-178 383.6998,-178 383.6998,-178"/>
<polygon fill="#000000" stroke="#000000" points="383.6998,-181.5001 393.6998,-178 383.6997,-174.5001 383.6998,-181.5001"/>
</g>
<!-- MainRoutingModule -->
<g id="node12" class="node">
<title>MainRoutingModule</title>
<polygon fill="#8dd3c7" stroke="#000000" points="1616.2176,-258 1613.2176,-262 1592.2176,-262 1589.2176,-258 1481.7824,-258 1481.7824,-222 1616.2176,-222 1616.2176,-258"/>
<text text-anchor="middle" x="1549" y="-235.8" font-family="Times,serif" font-size="14.00" fill="#000000">MainRoutingModule</text>
</g>
<!-- MainRoutingModule&#45;&gt;MainModule -->
<g id="edge14" class="edge">
<title>MainRoutingModule&#45;&gt;MainModule</title>
<path fill="none" stroke="#000000" d="M1549,-221.7772C1549,-201.6348 1549,-172 1549,-172 1549,-172 1285.5514,-172 1285.5514,-172"/>
<polygon fill="#000000" stroke="#000000" points="1285.5514,-168.5001 1275.5514,-172 1285.5513,-175.5001 1285.5514,-168.5001"/>
</g>
<!-- MainScrollToTopComponent  -->
<g id="node15" class="node">
<title>MainScrollToTopComponent </title>
<polygon fill="#fb8072" stroke="#000000" points="2241.9264,-258 2056.0736,-258 2056.0736,-222 2241.9264,-222 2241.9264,-258"/>
<text text-anchor="middle" x="2149" y="-235.8" font-family="Times,serif" font-size="14.00" fill="#000000">MainScrollToTopComponent </text>
</g>
<!-- SharedModule&#45;&gt;MainScrollToTopComponent  -->
<g id="edge19" class="edge">
<title>SharedModule&#45;&gt;MainScrollToTopComponent </title>
<path fill="none" stroke="#000000" stroke-dasharray="5,2" d="M1776.2347,-166C1887.5536,-166 2149,-166 2149,-166 2149,-166 2149,-211.7079 2149,-211.7079"/>
<polygon fill="#000000" stroke="#000000" points="2145.5001,-211.7078 2149,-221.7079 2152.5001,-211.7079 2145.5001,-211.7078"/>
</g>
<!-- MainSidenavComponent  -->
<g id="node16" class="node">
<title>MainSidenavComponent </title>
<polygon fill="#fb8072" stroke="#000000" points="2037.9853,-258 1878.0147,-258 1878.0147,-222 2037.9853,-222 2037.9853,-258"/>
<text text-anchor="middle" x="1958" y="-235.8" font-family="Times,serif" font-size="14.00" fill="#000000">MainSidenavComponent </text>
</g>
<!-- SharedModule&#45;&gt;MainSidenavComponent  -->
<g id="edge20" class="edge">
<title>SharedModule&#45;&gt;MainSidenavComponent </title>
<path fill="none" stroke="#000000" stroke-dasharray="5,2" d="M1776.272,-178C1844.1141,-178 1958,-178 1958,-178 1958,-178 1958,-211.7333 1958,-211.7333"/>
<polygon fill="#000000" stroke="#000000" points="1954.5001,-211.7333 1958,-221.7333 1961.5001,-211.7333 1954.5001,-211.7333"/>
</g>
<!-- MainSidenavContentComponent  -->
<g id="node17" class="node">
<title>MainSidenavContentComponent </title>
<polygon fill="#fb8072" stroke="#000000" points="1859.8171,-258 1656.1829,-258 1656.1829,-222 1859.8171,-222 1859.8171,-258"/>
<text text-anchor="middle" x="1758" y="-235.8" font-family="Times,serif" font-size="14.00" fill="#000000">MainSidenavContentComponent </text>
</g>
<!-- SharedModule&#45;&gt;MainSidenavContentComponent  -->
<g id="edge21" class="edge">
<title>SharedModule&#45;&gt;MainSidenavContentComponent </title>
<path fill="none" stroke="#000000" stroke-dasharray="5,2" d="M1727,-190.2228C1727,-190.2228 1727,-211.7269 1727,-211.7269"/>
<polygon fill="#000000" stroke="#000000" points="1723.5001,-211.7269 1727,-221.7269 1730.5001,-211.727 1723.5001,-211.7269"/>
</g>
<!-- SpecRoutingModule -->
<g id="node19" class="node">
<title>SpecRoutingModule</title>
<polygon fill="#8dd3c7" stroke="#000000" points="2555.8795,-122 2552.8795,-126 2531.8795,-126 2528.8795,-122 2424.1205,-122 2424.1205,-86 2555.8795,-86 2555.8795,-122"/>
<text text-anchor="middle" x="2490" y="-99.8" font-family="Times,serif" font-size="14.00" fill="#000000">SpecRoutingModule</text>
</g>
<!-- SpecRoutingModule&#45;&gt;SpecModule -->
<g id="edge26" class="edge">
<title>SpecRoutingModule&#45;&gt;SpecModule</title>
<path fill="none" stroke="#000000" d="M2490,-122.2228C2490,-142.3652 2490,-172 2490,-172 2490,-172 2370.6552,-172 2370.6552,-172"/>
<polygon fill="#000000" stroke="#000000" points="2370.6552,-168.5001 2360.6552,-172 2370.6552,-175.5001 2370.6552,-168.5001"/>
</g>
<!-- SpecService -->
<g id="node20" class="node">
<title>SpecService</title>
<ellipse fill="#fdb462" stroke="#000000" cx="2341" cy="-104" rx="58.5251" ry="18"/>
<text text-anchor="middle" x="2341" y="-99.8" font-family="Times,serif" font-size="14.00" fill="#000000">SpecService</text>
</g>
<!-- SpecService&#45;&gt;SpecModule -->
<g id="edge27" class="edge">
<title>SpecService&#45;&gt;SpecModule</title>
<path fill="none" stroke="#000000" d="M2334.3332,-122.2228C2334.3332,-122.2228 2334.3332,-143.7269 2334.3332,-143.7269"/>
<polygon fill="#000000" stroke="#000000" points="2330.8333,-143.7269 2334.3332,-153.7269 2337.8333,-143.727 2330.8333,-143.7269"/>
</g>
</g>
</svg>
