<?xml version="1.0" encoding="UTF-8" standalone="no"?>
<!DOCTYPE svg PUBLIC "-//W3C//DTD SVG 1.1//EN"
 "http://www.w3.org/Graphics/SVG/1.1/DTD/svg11.dtd">
<!-- Generated by graphviz version 2.40.1 (20161225.0304)
 -->
<!-- Title: dependencies Pages: 1 -->
<svg width="944pt" height="284pt"
 viewBox="0.00 0.00 944.00 284.00" xmlns="http://www.w3.org/2000/svg" xmlns:xlink="http://www.w3.org/1999/xlink">
<g id="graph0" class="graph" transform="scale(1 1) rotate(0) translate(4 280)">
<title>dependencies</title>
<polygon fill="#ffffff" stroke="transparent" points="-4,4 -4,-280 940,-280 940,4 -4,4"/>
<text text-anchor="start" x="447.0091" y="-42.4" font-family="sans-serif" font-weight="bold" font-size="14.00" fill="#000000">Legend</text>
<polygon fill="#ffffb3" stroke="transparent" points="234,-10 234,-30 254,-30 254,-10 234,-10"/>
<text text-anchor="start" x="257.629" y="-15.4" font-family="sans-serif" font-size="14.00" fill="#000000"> &#160;Declarations</text>
<polygon fill="#8dd3c7" stroke="transparent" points="347,-10 347,-30 367,-30 367,-10 347,-10"/>
<text text-anchor="start" x="370.7251" y="-15.4" font-family="sans-serif" font-size="14.00" fill="#000000"> &#160;Module</text>
<polygon fill="#80b1d3" stroke="transparent" points="433,-10 433,-30 453,-30 453,-10 433,-10"/>
<text text-anchor="start" x="456.7812" y="-15.4" font-family="sans-serif" font-size="14.00" fill="#000000"> &#160;Bootstrap</text>
<polygon fill="#fdb462" stroke="transparent" points="530,-10 530,-30 550,-30 550,-10 530,-10"/>
<text text-anchor="start" x="553.6732" y="-15.4" font-family="sans-serif" font-size="14.00" fill="#000000"> &#160;Providers</text>
<polygon fill="#fb8072" stroke="transparent" points="626,-10 626,-30 646,-30 646,-10 626,-10"/>
<text text-anchor="start" x="649.7258" y="-15.4" font-family="sans-serif" font-size="14.00" fill="#000000"> &#160;Exports</text>
<g id="clust1" class="cluster">
<title>cluster_MainModule</title>
<polygon fill="none" stroke="#000000" stroke-dasharray="1,5" points="8,-70 8,-268 928,-268 928,-70 8,-70"/>
</g>
<g id="clust2" class="cluster">
<title>cluster_MainModule_declarations</title>
<polygon fill="none" stroke="#000000" points="174,-78 174,-130 920,-130 920,-78 174,-78"/>
</g>
<g id="clust7" class="cluster">
<title>cluster_MainModule_imports</title>
<polygon fill="none" stroke="#000000" points="16,-78 16,-130 166,-130 166,-78 16,-78"/>
</g>
<g id="clust8" class="cluster">
<title>cluster_MainModule_exports</title>
<polygon fill="none" stroke="#000000" points="399,-208 399,-260 557,-260 557,-208 399,-208"/>
</g>
<!-- MainRootComponent -->
<g id="node1" class="node">
<title>MainRootComponent</title>
<polygon fill="#ffffb3" stroke="#000000" points="912.1094,-122 773.8906,-122 773.8906,-86 912.1094,-86 912.1094,-122"/>
<text text-anchor="middle" x="843" y="-99.8" font-family="Times,serif" font-size="14.00" fill="#000000">MainRootComponent</text>
</g>
<!-- MainModule -->
<g id="node5" class="node">
<title>MainModule</title>
<polygon fill="#8dd3c7" stroke="#000000" points="522.5997,-187 519.5997,-191 498.5997,-191 495.5997,-187 433.4003,-187 433.4003,-151 522.5997,-151 522.5997,-187"/>
<text text-anchor="middle" x="478" y="-164.8" font-family="Times,serif" font-size="14.00" fill="#000000">MainModule</text>
</g>
<!-- MainRootComponent&#45;&gt;MainModule -->
<g id="edge1" class="edge">
<title>MainRootComponent&#45;&gt;MainModule</title>
<path fill="none" stroke="#000000" d="M843,-122.2843C843,-143.3211 843,-175 843,-175 843,-175 532.7562,-175 532.7562,-175"/>
<polygon fill="#000000" stroke="#000000" points="532.7562,-171.5001 522.7562,-175 532.7561,-178.5001 532.7562,-171.5001"/>
</g>
<!-- MainScrollToTopComponent -->
<g id="node2" class="node">
<title>MainScrollToTopComponent</title>
<polygon fill="#ffffb3" stroke="#000000" points="756.4269,-122 573.5731,-122 573.5731,-86 756.4269,-86 756.4269,-122"/>
<text text-anchor="middle" x="665" y="-99.8" font-family="Times,serif" font-size="14.00" fill="#000000">MainScrollToTopComponent</text>
</g>
<!-- MainScrollToTopComponent&#45;&gt;MainModule -->
<g id="edge2" class="edge">
<title>MainScrollToTopComponent&#45;&gt;MainModule</title>
<path fill="none" stroke="#000000" d="M665,-122.0225C665,-139.3734 665,-163 665,-163 665,-163 532.7912,-163 532.7912,-163"/>
<polygon fill="#000000" stroke="#000000" points="532.7912,-159.5001 522.7912,-163 532.7911,-166.5001 532.7912,-159.5001"/>
</g>
<!-- MainSidenavComponent -->
<g id="node3" class="node">
<title>MainSidenavComponent</title>
<polygon fill="#ffffb3" stroke="#000000" points="555.9846,-122 400.0154,-122 400.0154,-86 555.9846,-86 555.9846,-122"/>
<text text-anchor="middle" x="478" y="-99.8" font-family="Times,serif" font-size="14.00" fill="#000000">MainSidenavComponent</text>
</g>
<!-- MainSidenavComponent&#45;&gt;MainModule -->
<g id="edge3" class="edge">
<title>MainSidenavComponent&#45;&gt;MainModule</title>
<path fill="none" stroke="#000000" d="M478,-122.1061C478,-122.1061 478,-140.991 478,-140.991"/>
<polygon fill="#000000" stroke="#000000" points="474.5001,-140.9909 478,-150.991 481.5001,-140.991 474.5001,-140.9909"/>
</g>
<!-- MainSidenavContentComponent -->
<g id="node4" class="node">
<title>MainSidenavContentComponent</title>
<polygon fill="#ffffb3" stroke="#000000" points="382.3173,-122 181.6827,-122 181.6827,-86 382.3173,-86 382.3173,-122"/>
<text text-anchor="middle" x="282" y="-99.8" font-family="Times,serif" font-size="14.00" fill="#000000">MainSidenavContentComponent</text>
</g>
<!-- MainSidenavContentComponent&#45;&gt;MainModule -->
<g id="edge4" class="edge">
<title>MainSidenavContentComponent&#45;&gt;MainModule</title>
<path fill="none" stroke="#000000" d="M282,-122.0225C282,-139.3734 282,-163 282,-163 282,-163 423.0336,-163 423.0336,-163"/>
<polygon fill="#000000" stroke="#000000" points="423.0337,-166.5001 433.0336,-163 423.0336,-159.5001 423.0337,-166.5001"/>
</g>
<!-- MainRootComponent  -->
<g id="node7" class="node">
<title>MainRootComponent </title>
<polygon fill="#fb8072" stroke="#000000" points="548.6099,-252 407.3901,-252 407.3901,-216 548.6099,-216 548.6099,-252"/>
<text text-anchor="middle" x="478" y="-229.8" font-family="Times,serif" font-size="14.00" fill="#000000">MainRootComponent </text>
</g>
<!-- MainModule&#45;&gt;MainRootComponent  -->
<g id="edge6" class="edge">
<title>MainModule&#45;&gt;MainRootComponent </title>
<path fill="none" stroke="#000000" stroke-dasharray="5,2" d="M478,-187.1061C478,-187.1061 478,-205.991 478,-205.991"/>
<polygon fill="#000000" stroke="#000000" points="474.5001,-205.9909 478,-215.991 481.5001,-205.991 474.5001,-205.9909"/>
</g>
<!-- MainRoutingModule -->
<g id="node6" class="node">
<title>MainRoutingModule</title>
<polygon fill="#8dd3c7" stroke="#000000" points="158.2176,-122 155.2176,-126 134.2176,-126 131.2176,-122 23.7824,-122 23.7824,-86 158.2176,-86 158.2176,-122"/>
<text text-anchor="middle" x="91" y="-99.8" font-family="Times,serif" font-size="14.00" fill="#000000">MainRoutingModule</text>
</g>
<!-- MainRoutingModule&#45;&gt;MainModule -->
<g id="edge5" class="edge">
<title>MainRoutingModule&#45;&gt;MainModule</title>
<path fill="none" stroke="#000000" d="M91,-122.2843C91,-143.3211 91,-175 91,-175 91,-175 423.2281,-175 423.2281,-175"/>
<polygon fill="#000000" stroke="#000000" points="423.2282,-178.5001 433.2281,-175 423.2281,-171.5001 423.2282,-178.5001"/>
</g>
</g>
</svg>
